<svg width="20" height="20" viewBox="0 0 20 20" fill="none" xmlns="http://www.w3.org/2000/svg">
<path opacity="0.4" d="M1.6665 5.37246C1.6665 3.32996 3.35837 1.66663 5.43695 1.66663H9.57121C11.6455 1.66663 13.3332 3.32496 13.3332 5.36413V14.6275C13.3332 16.6708 11.6413 18.3333 9.56188 18.3333H5.42932C3.35413 18.3333 1.6665 16.675 1.6665 14.6358V13.8525V5.37246Z" fill="black"/>
<path d="M18.149 9.54566L15.7775 7.1215C15.5324 6.8715 15.138 6.8715 14.8937 7.12316C14.6502 7.37483 14.651 7.78066 14.8953 8.03066L16.1947 9.35816H14.9489H7.95696C7.61203 9.35816 7.33203 9.64566 7.33203 9.99983C7.33203 10.3548 7.61203 10.6415 7.95696 10.6415H16.1947L14.8953 11.969C14.651 12.219 14.6502 12.6248 14.8937 12.8765C15.0162 13.0023 15.1761 13.0657 15.3368 13.0657C15.4959 13.0657 15.6558 13.0023 15.7775 12.8782L18.149 10.4548C18.2667 10.334 18.3333 10.1707 18.3333 9.99983C18.3333 9.82983 18.2667 9.6665 18.149 9.54566Z" fill="black"/>
</svg>
