<svg width="20" height="20" viewBox="0 0 20 20" fill="none" xmlns="http://www.w3.org/2000/svg">
<path opacity="0.4" fill-rule="evenodd" clip-rule="evenodd" d="M7.65719 3.12268C7.65719 2.77865 7.37303 2.5 7.02303 2.5H7.02219L5.66469 2.50082C3.83886 2.50245 2.35303 3.96109 2.35303 5.75232V7.30167C2.35303 7.64488 2.63719 7.92435 2.98719 7.92435C3.33719 7.92435 3.62219 7.64488 3.62219 7.30167V5.75232C3.62219 4.6467 4.53886 3.747 5.66553 3.74536L7.02303 3.74455C7.37386 3.74455 7.65719 3.46589 7.65719 3.12268ZM14.3279 2.50025H13.0004C12.6504 2.50025 12.3663 2.7789 12.3663 3.12293C12.3663 3.46614 12.6504 3.74397 13.0004 3.74397H14.3279C15.4588 3.74397 16.3788 4.64613 16.3788 5.75502V7.30192C16.3788 7.64513 16.6629 7.9246 17.0129 7.9246C17.3638 7.9246 17.6471 7.64513 17.6471 7.30192V5.75502C17.6471 3.95971 16.1588 2.50025 14.3279 2.50025ZM7.69869 5.61888H12.302C12.8062 5.61888 13.2904 5.81745 13.6429 6.17129C13.9979 6.52839 14.1945 7.00807 14.1937 7.50735V8.54516C14.1895 8.66691 14.0904 8.76579 13.9662 8.76906H6.03286C5.90953 8.76497 5.81036 8.6661 5.80786 8.54516V7.50735C5.79869 6.47364 6.64536 5.6295 7.69869 5.61888Z" fill="white"/>
<path d="M18.5327 10.0344H1.4685C1.1185 10.0344 0.833496 10.313 0.833496 10.657C0.833496 11.0003 1.1185 11.2781 1.4685 11.2781H2.35266V14.2477C2.35266 16.0389 3.83933 17.4976 5.66516 17.4992L7.02266 17.5C7.3735 17.5 7.65683 17.2213 7.65766 16.8773C7.65766 16.5341 7.3735 16.2555 7.0235 16.2555L5.66683 16.2546C4.53933 16.253 3.62183 15.3533 3.62183 14.2477V11.2781H5.80766V12.1042C5.79933 13.138 6.64516 13.9829 7.6985 13.9927H12.3018C13.356 13.9829 14.2018 13.138 14.1935 12.1042V11.2781H16.3793V14.2444C16.3793 15.3541 15.4593 16.2555 14.3285 16.2555H13.001C12.6502 16.2555 12.366 16.5341 12.366 16.8773C12.366 17.2213 12.6502 17.5 13.001 17.5H14.3285C16.1585 17.5 17.6477 16.0405 17.6477 14.2444V11.2781H18.5327C18.8827 11.2781 19.1668 11.0003 19.1668 10.657C19.1668 10.313 18.8827 10.0344 18.5327 10.0344Z" fill="white"/>
</svg>
